<svg width="80" height="80" viewBox="0 0 80 80" fill="none" xmlns="http://www.w3.org/2000/svg">
<path d="M66.275 34.3717V29.105L59.3333 33.775H42.0283C36.8033 33.775 32.5283 38.05 32.5283 43.275V56.8133C32.5283 62.0367 36.8033 66.3133 42.0283 66.3133H63C68.225 66.3133 72.5 62.0383 72.5 56.8133V43.275C72.5 39.2017 69.8967 35.715 66.275 34.3717Z" stroke="#0077B6" stroke-width="0.5" stroke-linecap="round" stroke-linejoin="round"/>
<path d="M13.725 45.6283V50.895L20.6667 46.225H37.9717C43.1967 46.225 47.4717 41.95 47.4717 36.725V23.1883C47.4717 17.9633 43.1967 13.6883 37.9717 13.6883H17C11.775 13.6883 7.5 17.9633 7.5 23.1883V36.725C7.5 40.7983 10.1033 44.285 13.725 45.6283Z" stroke="#0077B6" stroke-width="0.5" stroke-linecap="round" stroke-linejoin="round"/>
</svg>
