<svg width="192" height="55" viewBox="0 0 192 55" fill="none" xmlns="http://www.w3.org/2000/svg">
<path d="M29.6201 20.8083H0V53.5338H29.6201V20.8083Z" fill="#3974EA"/>
<path d="M63.4336 0.291992H33.8135V33.0175H63.4336V0.291992Z" fill="#3974EA"/>
<path d="M28.5317 0.291992H13.7217V16.668H28.5317V0.291992Z" fill="#33C12B"/>
<path d="M48.73 37.1843H33.9199V53.5603H48.73V37.1843Z" fill="#33C12B"/>
<path d="M91.0895 0C91.5407 0 91.9122 0.477741 92.1776 1.40669C92.4431 2.36218 92.6023 3.23805 92.6023 4.03429C92.6023 4.83053 92.3369 5.25518 91.8061 5.25518C91.2753 5.25518 91.4345 5.20211 91.3018 5.06941C91.1425 4.96324 90.9302 4.53858 90.6648 3.82196C90.3994 3.10534 90.0013 2.6276 89.4439 2.36219C88.9131 2.09677 88.3292 1.96407 87.6922 1.96407C86.7898 1.96407 86.1528 2.17639 85.7281 2.60105C85.33 3.02571 85.1177 3.68925 85.1177 4.64474V25.7451C85.1177 26.0636 85.2238 26.3556 85.4096 26.5944C85.5954 26.8333 85.9935 27.0456 86.604 27.2314C87.2144 27.4172 87.586 27.5765 87.7187 27.7092C87.8514 27.8419 87.931 28.0011 87.931 28.1604C87.931 28.8505 87.5595 29.1955 86.8428 29.1955C86.1262 29.1955 85.8608 29.1424 85.0911 29.0097C84.3214 28.877 83.764 28.8239 83.3925 28.8239C83.0209 28.8239 82.5431 28.877 81.8796 28.9832C81.2161 29.0893 80.7118 29.1424 80.3667 29.1424C80.0217 29.1424 79.597 29.0362 79.3051 28.8504C79.0131 28.6647 78.8804 28.3992 78.8804 28.0542C78.8804 27.7092 78.9335 27.7357 79.0397 27.6296C79.1458 27.5234 79.4909 27.3376 80.1013 27.1783C80.6852 26.9926 81.1099 26.7271 81.2957 26.3556C81.508 25.984 81.6142 25.5593 81.6142 25.1081V3.79541C81.6142 2.52142 80.7383 1.85789 79.0131 1.85789C77.288 1.85789 77.0756 2.12331 76.6244 2.6276C76.3325 2.91955 76.1201 3.37075 75.9874 3.9812C75.8547 4.59165 75.722 4.9367 75.5893 5.06941C75.4566 5.17557 75.2708 5.22865 75.085 5.22865C74.8992 5.22865 74.6604 5.17557 74.4746 5.06941C74.2888 4.96324 74.1826 4.80398 74.1826 4.64474C74.1826 3.2115 74.3153 2.07023 74.5542 1.24745C74.7931 0.424665 75.1646 0.0265511 75.6424 0.0265511H91.116L91.0895 0Z" fill="black"/>
<path d="M114.34 3.82204C114.34 3.29121 114.155 2.84 113.783 2.5215C113.412 2.20301 112.934 2.04376 112.35 2.04376C111.766 2.04376 111.527 1.96413 111.262 1.80488C110.996 1.64564 110.837 1.43331 110.837 1.19444C110.837 0.955563 110.97 0.663605 111.235 0.477816C111.501 0.292026 111.766 0.212402 112.084 0.212402C112.403 0.212402 112.775 0.292033 113.703 0.451281C114.632 0.610529 115.243 0.69016 115.535 0.69016C115.827 0.69016 116.464 0.637074 117.101 0.504367C117.738 0.37166 118.242 0.318574 118.534 0.318574C119.33 0.318574 119.728 0.637064 119.728 1.27406C119.728 1.91105 119.33 2.04376 118.534 2.04376C117.738 2.04376 117.34 2.14993 117.021 2.36226C116.703 2.57459 116.49 2.84 116.437 3.13195C116.358 3.42391 116.331 3.82204 116.331 4.27324V24.1527C116.331 25.4798 116.464 26.5149 116.756 27.2315C117.048 27.9481 117.18 28.532 117.18 28.9567C117.18 29.3814 116.995 29.5671 116.65 29.5671C116.305 29.5671 116.198 29.514 116.066 29.4079C115.933 29.3017 115.747 29.0629 115.482 28.6913L98.8934 6.76812C98.7076 6.55579 98.5484 6.42308 98.4156 6.42308C98.2829 6.42308 98.1237 6.66195 98.1237 7.16624V25.5329C98.1237 26.0902 98.3626 26.5414 98.8403 26.8599C99.3181 27.1784 99.7693 27.3642 100.194 27.3642C101.256 27.3642 101.786 27.7092 101.786 28.3993C101.786 29.0894 101.733 28.7974 101.601 28.9301C101.494 29.0628 101.202 29.1425 100.778 29.1425C100.353 29.1425 99.7162 29.0894 98.8669 28.9832C98.0175 28.8771 97.4602 28.824 97.2213 28.824C96.9824 28.824 96.2923 28.8771 95.4696 28.9832C94.6468 29.0894 94.1425 29.1425 93.9302 29.1425C93.2666 29.1425 92.9216 28.824 92.9216 28.187C92.9216 27.55 93.3197 27.3907 94.1159 27.3907C94.9122 27.3907 95.2838 27.205 95.6819 26.8334C96.08 26.4618 96.2658 25.9575 96.2658 25.2674V4.08745C96.2658 3.45046 96.1066 2.91963 95.7615 2.54805C95.443 2.17647 95.0184 1.96414 94.5141 1.96414C94.0098 1.96414 93.3728 1.88452 93.1605 1.75181C92.9216 1.59257 92.8154 1.38022 92.8154 1.06173C92.8154 0.50436 93.1605 0.238953 93.824 0.238953C94.4875 0.238953 94.2487 0.265485 94.7264 0.345109C95.2042 0.424733 95.6023 0.451281 95.9208 0.451281C96.2393 0.451281 96.4516 0.424733 96.7701 0.345109C97.0886 0.265485 97.3805 0.238953 97.5929 0.238953C97.9645 0.238953 98.4422 0.55745 98.9996 1.1679C99.5569 1.77835 101.494 4.29977 104.786 8.70563L113.597 20.4369C113.757 20.6492 113.889 20.7289 114.022 20.7289C114.314 20.7289 114.473 20.3838 114.473 19.6672V3.76895L114.34 3.82204Z" fill="black"/>
<path d="M132.733 11.3066C132.494 11.6517 132.388 11.8905 132.388 12.0232C132.388 12.1559 132.441 12.2621 132.547 12.3948L142.792 26.1432C143.11 26.4883 143.455 26.7271 143.854 26.8864C144.252 27.0456 144.57 27.1253 144.809 27.1253C145.048 27.1253 145.313 27.2049 145.526 27.3376C145.738 27.4968 145.844 27.6826 145.844 27.895C145.844 28.2665 145.685 28.5319 145.366 28.7443C145.048 28.9566 144.623 29.0362 144.146 29.0362C143.11 29.0362 141.969 28.6381 140.748 27.8419C139.527 27.0456 138.413 25.984 137.404 24.6569L130.291 15.2878C130.132 15.102 130.026 15.0224 129.972 15.0224C129.919 15.0224 129.813 15.102 129.681 15.2613L127.079 18.5789C126.973 18.7382 126.92 18.8974 126.92 19.1098V25.6655C126.92 26.0371 127.026 26.329 127.212 26.5944C127.398 26.8598 127.823 27.0456 128.433 27.1783C129.044 27.2845 129.442 27.4172 129.548 27.5765C129.681 27.7092 129.734 27.895 129.734 28.1073C129.734 28.3196 129.574 28.5585 129.229 28.7443C128.911 28.9301 128.407 29.0362 127.77 29.0362C127.133 29.0362 127.026 28.9832 126.469 28.8504C125.912 28.7177 125.434 28.6647 125.009 28.6647C124.585 28.6647 123.788 28.7443 123.072 28.9035C122.355 29.0628 121.851 29.1424 121.506 29.1424C121.161 29.1424 120.895 29.0362 120.603 28.8504C120.311 28.6647 120.179 28.3992 120.179 28.0807C120.179 27.7622 120.232 27.6826 120.391 27.5234C120.524 27.3641 120.948 27.258 121.692 27.2049C122.435 27.1518 122.886 26.9129 123.125 26.4883C123.337 26.0636 123.47 25.5859 123.47 25.055V4.22008C123.47 3.68925 123.364 3.23805 123.151 2.83993C122.939 2.44181 122.461 2.20293 121.771 2.12331C121.055 2.04368 120.63 1.93752 120.497 1.77827C120.365 1.61903 120.285 1.43324 120.285 1.22091C120.285 1.00858 120.418 0.769699 120.71 0.530827C121.001 0.291955 121.4 0.159258 121.904 0.159258C122.408 0.159258 123.019 0.238879 123.762 0.371585C124.505 0.530833 125.115 0.583913 125.62 0.583913C126.124 0.583913 126.336 0.504282 126.841 0.345034C127.345 0.185786 127.902 0.106172 128.539 0.106172C129.176 0.106172 129.468 0.212331 129.813 0.39812C130.132 0.58391 130.291 0.822791 130.291 1.0882C130.291 1.35362 130.211 1.45978 130.052 1.61903C129.893 1.77828 129.521 1.91097 128.937 2.07022C128.353 2.22947 127.955 2.36218 127.716 2.46834C127.478 2.57451 127.292 2.78684 127.159 3.10534C127.026 3.42384 126.947 3.90159 126.947 4.53858V15.3144L127 15.7125L127.292 15.4205L136.13 3.76887C136.581 3.21151 136.794 2.81339 136.794 2.57451C136.794 2.33564 136.714 2.28256 136.581 2.17639C136.449 2.07023 136.077 1.9906 135.52 1.93751C134.936 1.88443 134.564 1.77828 134.405 1.61903C134.219 1.45978 134.139 1.27399 134.139 1.03512C134.139 0.796247 134.272 0.477747 134.564 0.318499C134.856 0.13271 135.201 0.0530859 135.599 0.0530859C135.997 0.0530859 136.422 0.106162 136.979 0.212328C137.537 0.318493 137.908 0.371585 138.094 0.371585C138.28 0.371585 138.758 0.318499 139.395 0.185793C140.032 0.0796273 140.509 0 140.854 0C141.199 0 141.518 0.106175 141.73 0.291964C141.969 0.477754 142.075 0.743164 142.075 1.03512C142.075 1.32707 142.022 1.35361 141.916 1.45977C141.81 1.56594 141.359 1.75174 140.616 1.96407C139.846 2.20294 139.262 2.57451 138.864 3.13188L132.786 11.2535L132.733 11.3066Z" fill="black"/>
<path d="M75.112 53.6401L75.0059 49.7119H76.0675L76.731 51.5698C76.7576 51.676 76.8372 51.7556 76.9168 51.8618C76.9965 51.9414 77.1026 52.021 77.1557 52.0741C77.4211 52.2334 77.7131 52.3926 78.0581 52.5253C78.4032 52.658 78.7747 52.7907 79.1463 52.8969C79.5179 53.0031 79.8364 53.0296 80.1284 53.0296C80.8981 53.0296 81.535 52.8438 82.0128 52.4457C82.4905 52.0476 82.7294 51.5698 82.7294 50.9594C82.7294 50.3489 82.5701 50.0304 82.2782 49.765C81.9597 49.4996 81.535 49.2342 80.9777 49.0219C80.4468 48.8095 79.9426 48.6503 79.4117 48.5176C78.9074 48.3849 78.4032 48.2256 77.8989 48.0398C77.1026 47.7213 76.4922 47.2701 76.041 46.6597C75.5898 46.0492 75.3509 45.3061 75.3509 44.4567C75.3509 43.6074 75.5898 42.9439 76.0675 42.3334C76.5453 41.723 77.1823 41.2452 77.952 40.9002C78.7217 40.5552 79.571 40.3694 80.4999 40.3694C81.4289 40.3694 81.5616 40.3959 82.0924 40.4755C82.6232 40.5286 83.1541 40.6083 83.6318 40.7144C84.1095 40.794 84.5607 40.9002 84.9323 41.0064V44.7487H83.8972L83.2868 42.997C83.2602 42.8908 83.2071 42.8112 83.101 42.7316C83.0213 42.6519 82.9417 42.5723 82.8621 42.5192C82.7029 42.4131 82.4905 42.3069 82.1986 42.2007C81.9066 42.0946 81.6147 42.0149 81.2962 41.9353C80.9777 41.8557 80.6857 41.8292 80.4468 41.8292C79.7302 41.8292 79.1729 42.0149 78.7747 42.36C78.3766 42.7316 78.1908 43.1297 78.1908 43.5543C78.1908 43.979 78.3235 44.4037 78.5889 44.7487C78.8544 45.0672 79.3321 45.3591 80.0487 45.598C80.553 45.7573 81.0307 45.9165 81.5085 46.0492C81.9862 46.1819 82.4905 46.3677 83.0744 46.5801C83.5256 46.7658 83.9503 47.0047 84.3484 47.2967C84.7465 47.6152 85.065 47.9867 85.3304 48.4379C85.5693 48.8891 85.702 49.4465 85.702 50.11C85.702 50.7736 85.4897 51.5698 85.0916 52.2334C84.6934 52.8969 84.0565 53.4543 83.1806 53.8524C82.3313 54.277 81.2165 54.4628 79.8895 54.4628C78.5624 54.4628 78.8809 54.4098 78.3235 54.3301C77.7662 54.2505 77.2353 54.1443 76.678 54.0116C76.1206 53.8789 75.6163 53.7462 75.1386 53.6135L75.112 53.6401Z" fill="#3974EA"/>
<path d="M89.7889 54.1709V53.4277L91.3018 52.9234C91.4345 52.8969 91.5141 52.8438 91.5937 52.7641C91.6733 52.6845 91.6999 52.5784 91.6999 52.4191V48.9157L87.931 42.2803C87.8779 42.1742 87.7983 42.068 87.7187 41.9884C87.639 41.8822 87.5329 41.8026 87.4267 41.776L86.3916 41.3779V40.6348H92.4961V41.3779L90.9036 41.8822L93.372 46.1288L93.9294 47.2966H94.0355L97.0878 41.9884L95.5484 41.3779V40.6348H100.113V41.3779L99.1049 41.8291C98.9987 41.8822 98.8926 41.9618 98.8129 42.0415C98.7333 42.1211 98.6537 42.2538 98.5741 42.3334L94.7256 48.836V52.3926C94.7256 52.5518 94.7521 52.658 94.8317 52.7376C94.9114 52.8172 94.991 52.8703 95.1237 52.8969L96.6366 53.4011V54.1443H89.7889V54.1709Z" fill="#3974EA"/>
<path d="M100.645 54.1709V53.4277L102.025 52.8703C102.131 52.8172 102.237 52.7641 102.317 52.6845C102.397 52.6049 102.423 52.4987 102.423 52.366V42.36C102.423 42.2272 102.397 42.1211 102.317 42.0415C102.237 41.9618 102.158 41.9087 102.052 41.8822L100.592 41.3779V40.6348H105.29L111.049 48.9157L111.845 50.1631H111.951V42.413C111.951 42.2803 111.925 42.1742 111.845 42.0945C111.766 42.0149 111.686 41.9618 111.553 41.9353L110.173 41.3779V40.6348H115.349V41.3779L113.969 41.9353C113.862 41.9618 113.756 42.0415 113.677 42.0945C113.597 42.1742 113.544 42.2803 113.544 42.413V52.021L113.252 54.2505H111.368L104.998 45.1202L104.175 43.7932H104.069V52.3395C104.069 52.4987 104.095 52.6049 104.175 52.658C104.255 52.7111 104.334 52.7907 104.44 52.8438L105.82 53.4011V54.1443H100.645V54.1709Z" fill="#3974EA"/>
<path d="M116.517 54.1708V53.4276L117.897 52.9233C118.003 52.8968 118.109 52.8172 118.189 52.7376C118.268 52.6579 118.295 52.5518 118.295 52.4191V42.3333C118.295 42.2006 118.268 42.0945 118.189 42.0148C118.109 41.9352 118.029 41.8821 117.897 41.8556L116.517 41.3513V40.6082H127.982V44.3239H126.921L126.284 42.3864C126.257 42.2803 126.204 42.2006 126.151 42.121C126.098 42.0679 126.018 42.0148 125.886 42.0148H121.321V46.4207H123.975C124.107 46.4207 124.187 46.3942 124.24 46.3411C124.293 46.288 124.346 46.2084 124.373 46.0757L124.93 44.5628H125.833V49.6588H124.93L124.373 48.1459C124.346 48.0397 124.293 47.9601 124.24 47.8805C124.187 47.8009 124.107 47.7743 123.975 47.7743H121.321V52.711H126.655C126.762 52.711 126.841 52.6845 126.921 52.6048C127 52.5252 127.027 52.4456 127.054 52.3394L127.664 50.163H128.726V54.1177H116.517V54.1708Z" fill="#3974EA"/>
<path d="M130.212 54.1708V53.4276L131.592 52.9233C131.698 52.8968 131.805 52.8172 131.858 52.7376C131.937 52.6579 131.964 52.5518 131.964 52.4191V42.3333C131.964 42.2006 131.937 42.0945 131.858 42.0148C131.778 41.9352 131.698 41.8821 131.592 41.8556L130.212 41.3513V40.6082H136.715C137.776 40.6082 138.626 40.7143 139.289 40.9001C139.953 41.0859 140.484 41.3779 140.855 41.6964C141.227 42.0149 141.492 42.3864 141.625 42.7845C141.758 43.1827 141.837 43.5808 141.837 44.0054C141.837 44.7221 141.678 45.306 141.386 45.8103C141.094 46.3146 140.696 46.6861 140.245 47.0046C139.794 47.3231 139.342 47.5355 138.891 47.6682L136.927 48.6502L134.83 48.0928L134.936 46.9515C134.963 46.9515 135.069 46.9781 135.255 47.0046C135.441 47.0046 135.627 47.0312 135.839 47.0577C136.051 47.0842 136.21 47.0577 136.317 47.0577C136.847 47.0577 137.272 46.925 137.617 46.6861C137.962 46.4473 138.201 46.1022 138.36 45.7306C138.52 45.3325 138.599 44.9344 138.599 44.4832C138.599 43.6073 138.387 42.9703 137.962 42.5722C137.537 42.1741 136.927 41.9618 136.131 41.9618H134.963V52.366C134.963 52.5252 134.99 52.6314 135.069 52.711C135.149 52.7906 135.228 52.8437 135.361 52.8703L136.821 53.3746V54.1177H130.186L130.212 54.1708ZM144.491 54.1708H141.147C140.722 54.1708 140.404 54.1177 140.192 54.0381C139.979 53.9585 139.794 53.8257 139.661 53.6134C139.528 53.4011 139.342 53.1888 139.13 52.8703L136.21 48.3317L138.997 47.4824L142.288 52.3129C142.368 52.4456 142.501 52.5783 142.66 52.7376C142.819 52.8703 142.978 52.9764 143.111 53.0295L144.491 53.4276V54.1708Z" fill="#3974EA"/>
<path d="M153.78 52.4457V49.5792C153.78 49.4465 153.754 49.3404 153.674 49.2607C153.594 49.1811 153.515 49.128 153.382 49.1015L151.683 48.5972V47.8806H158.372V48.5972L157.151 49.1015C157.045 49.1546 156.938 49.2076 156.885 49.2873C156.806 49.3669 156.779 49.4731 156.779 49.6058V51.0921C156.779 51.6494 156.779 52.1537 156.779 52.5519C156.779 52.95 156.779 53.2685 156.832 53.5074C156.116 53.7728 155.266 54.0116 154.284 54.1974C153.302 54.3832 152.294 54.4894 151.312 54.4894C150.33 54.4894 148.923 54.224 147.861 53.6666C146.826 53.1092 145.977 52.313 145.366 51.2779C144.729 50.2162 144.438 48.9422 144.438 47.4559C144.438 45.9696 144.756 44.7752 145.366 43.7136C145.977 42.6519 146.826 41.8292 147.914 41.2452C148.976 40.6613 150.197 40.3694 151.577 40.3694C152.957 40.3694 152.878 40.3959 153.462 40.449C154.045 40.5021 154.603 40.5817 155.134 40.6879C155.664 40.794 156.195 40.9267 156.726 41.0595V44.6691H155.664L155.081 42.8908C155.081 42.8112 155.001 42.7316 154.921 42.6519C154.842 42.5723 154.762 42.5458 154.656 42.4927C154.231 42.2804 153.727 42.1211 153.117 41.9884C152.506 41.8822 151.975 41.8026 151.471 41.8026C150.967 41.8026 150.17 41.9884 149.587 42.3865C149.003 42.7846 148.551 43.3685 148.206 44.1382C147.861 44.9345 147.676 45.9165 147.676 47.0843C147.676 48.2522 147.835 49.2607 148.127 50.1631C148.419 51.0655 148.87 51.7556 149.454 52.2599C150.038 52.7642 150.754 53.0296 151.577 53.0296C152.4 53.0296 152.161 53.0031 152.426 52.95C152.692 52.8969 152.931 52.8173 153.17 52.7376C153.408 52.658 153.621 52.5519 153.833 52.4457H153.78Z" fill="#3974EA"/>
<path d="M159.407 54.1708V53.4276L160.84 52.9233C160.973 52.8968 161.053 52.8172 161.132 52.7376C161.212 52.6579 161.239 52.5518 161.239 52.4191V42.3333C161.239 42.2006 161.186 42.0945 161.106 42.0148C161.026 41.9352 160.947 41.8821 160.84 41.8556L159.407 41.3513V40.6082H166.069V41.3513L164.636 41.8556C164.53 41.8821 164.424 41.9352 164.344 42.0148C164.264 42.0945 164.211 42.2006 164.211 42.3333V52.4191C164.211 52.5783 164.238 52.6845 164.344 52.7641C164.45 52.8437 164.53 52.8968 164.636 52.9233L166.069 53.4276V54.1708H159.407Z" fill="#3974EA"/>
<path d="M167.476 54.1708V53.4276L168.856 52.9233C168.962 52.8968 169.068 52.8172 169.148 52.7376C169.227 52.6579 169.254 52.5518 169.254 52.4191V42.3333C169.254 42.2006 169.227 42.0945 169.148 42.0148C169.068 41.9352 168.988 41.8821 168.856 41.8556L167.476 41.3513V40.6082H178.941V44.3239H177.88L177.243 42.3864C177.216 42.2803 177.163 42.2006 177.11 42.121C177.057 42.0679 176.977 42.0148 176.845 42.0148H172.28V46.4207H174.934C175.066 46.4207 175.146 46.3942 175.199 46.3411C175.252 46.288 175.305 46.2084 175.332 46.0757L175.889 44.5628H176.792V49.6588H175.889L175.332 48.1459C175.305 48.0397 175.252 47.9601 175.199 47.8805C175.146 47.8009 175.066 47.7743 174.934 47.7743H172.28V52.711H177.614C177.721 52.711 177.8 52.6845 177.88 52.6048C177.959 52.5252 177.986 52.4456 178.013 52.3394L178.623 50.163H179.685V54.1177H167.476V54.1708Z" fill="#3974EA"/>
<path d="M181.41 53.6401L181.304 49.7119H182.365L183.029 51.5698C183.055 51.676 183.135 51.7556 183.215 51.8618C183.294 51.9414 183.4 52.021 183.454 52.0741C183.719 52.2334 184.011 52.3926 184.356 52.5253C184.701 52.658 185.073 52.7907 185.444 52.8969C185.816 52.9765 186.134 53.0296 186.426 53.0296C187.196 53.0296 187.833 52.8438 188.311 52.4457C188.788 52.0476 189.027 51.5698 189.027 50.9594C189.027 50.3489 188.868 50.0304 188.576 49.765C188.258 49.4996 187.833 49.2342 187.276 49.0219C186.745 48.8095 186.24 48.6503 185.71 48.5176C185.205 48.3849 184.701 48.2256 184.197 48.0398C183.4 47.7213 182.79 47.2701 182.339 46.6597C181.888 46.0492 181.649 45.3061 181.649 44.4567C181.649 43.6074 181.888 42.9439 182.365 42.3334C182.843 41.723 183.48 41.2452 184.25 40.9002C185.019 40.5552 185.869 40.3694 186.798 40.3694C187.727 40.3694 187.859 40.3959 188.39 40.4755C188.921 40.5286 189.452 40.6083 189.93 40.7144C190.407 40.794 190.859 40.9002 191.23 41.0064V44.7487H190.195L189.585 42.997C189.558 42.8908 189.505 42.8112 189.399 42.7316C189.293 42.6519 189.24 42.5723 189.16 42.5192C189.001 42.4131 188.788 42.3069 188.496 42.2007C188.204 42.0946 187.913 42.0149 187.594 41.9353C187.276 41.8557 186.984 41.8292 186.745 41.8292C186.028 41.8292 185.471 42.0149 185.073 42.36C184.674 42.7316 184.489 43.1297 184.489 43.5543C184.489 43.979 184.621 44.4037 184.887 44.7487C185.152 45.0672 185.63 45.3591 186.347 45.598C186.851 45.7573 187.329 45.9165 187.806 46.0492C188.284 46.1819 188.788 46.3677 189.372 46.5801C189.823 46.7658 190.248 47.0047 190.646 47.2967C191.044 47.6152 191.363 47.9867 191.628 48.4379C191.867 48.8891 192 49.4465 192 50.11C192 50.7736 191.788 51.5698 191.389 52.2334C190.991 52.8969 190.354 53.4543 189.478 53.8524C188.629 54.277 187.514 54.4628 186.187 54.4628C184.86 54.4628 185.179 54.4098 184.621 54.3301C184.064 54.2505 183.533 54.1443 182.976 54.0116C182.418 53.8789 181.914 53.7462 181.436 53.6135L181.41 53.6401Z" fill="#3974EA"/>
<path d="M176.288 35.1671V34.8752L176.819 34.6894C176.872 34.6894 176.899 34.6628 176.925 34.6098C176.952 34.5832 176.978 34.5301 176.978 34.4771V30.602C176.978 30.5489 176.978 30.4958 176.925 30.4693C176.899 30.4428 176.872 30.4162 176.819 30.4162L176.288 30.2304V29.9385H178.836V30.2304L178.305 30.4162C178.252 30.4162 178.226 30.4428 178.199 30.4693C178.173 30.4958 178.146 30.5489 178.146 30.602V34.6098H179.898C179.951 34.6098 179.977 34.6098 180.004 34.5567C180.004 34.5301 180.057 34.477 180.057 34.4505L180.322 33.4154H180.747V35.1671H176.315H176.288Z" fill="black"/>
<path d="M181.729 35.1673V34.8753L182.313 34.6896C182.366 34.6896 182.393 34.663 182.419 34.6099C182.446 34.5834 182.472 34.5303 182.472 34.4772V30.4695H181.384C181.331 30.4695 181.305 30.4695 181.278 30.496C181.278 30.496 181.225 30.5491 181.225 30.6022L180.986 31.3984H180.588V29.9121H185.525V31.3984H185.126L184.888 30.6022C184.888 30.5491 184.861 30.5226 184.835 30.496C184.835 30.496 184.781 30.4695 184.728 30.4695H183.64V34.4772C183.64 34.5303 183.64 34.5834 183.693 34.6099C183.746 34.6365 183.773 34.663 183.799 34.663L184.383 34.8488V35.1408H181.729V35.1673Z" fill="black"/>
<path d="M185.949 35.1671V34.8752L186.48 34.6894C186.533 34.6894 186.56 34.6628 186.586 34.6098C186.613 34.5832 186.639 34.5301 186.639 34.4771V30.602C186.639 30.5489 186.639 30.4958 186.586 30.4693C186.533 30.4428 186.533 30.4162 186.48 30.4162L185.949 30.2304V29.9385H188.497C188.71 29.9385 188.948 29.9385 189.214 30.0181C189.479 30.0977 189.718 30.1508 189.957 30.257C190.196 30.3631 190.408 30.5224 190.62 30.7347C190.833 30.947 190.966 31.1859 191.098 31.4779C191.204 31.7698 191.284 32.1414 191.284 32.5661C191.284 32.9907 191.151 33.6543 190.912 34.0259C190.674 34.3974 190.329 34.6894 189.904 34.8752C189.479 35.061 189.028 35.1671 188.497 35.1671H185.976H185.949ZM187.807 30.4959V34.6363H188.524C189.028 34.6363 189.4 34.4771 189.638 34.132C189.877 33.787 189.984 33.3092 189.984 32.6988C189.984 32.0883 189.904 31.8495 189.771 31.531C189.638 31.2125 189.453 30.9471 189.187 30.7878C188.922 30.6286 188.656 30.5224 188.311 30.5224H187.781L187.807 30.4959Z" fill="black"/>
</svg>
