<svg width="80" height="80" viewBox="0 0 80 80" fill="none" xmlns="http://www.w3.org/2000/svg">
<path d="M40 10C37.6794 10 35.4538 10.9219 33.8128 12.5628C32.1719 14.2038 31.25 16.4294 31.25 18.75C31.25 21.0706 32.1719 23.2962 33.8128 24.9372C35.4538 26.5781 37.6794 27.5 40 27.5C42.3206 27.5 44.5462 26.5781 46.1872 24.9372C47.8281 23.2962 48.75 21.0706 48.75 18.75C48.75 16.4294 47.8281 14.2038 46.1872 12.5628C44.5462 10.9219 42.3206 10 40 10ZM28.75 18.75C28.75 15.7663 29.9353 12.9048 32.045 10.795C34.1548 8.68526 37.0163 7.5 40 7.5C42.9837 7.5 45.8452 8.68526 47.9549 10.795C50.0647 12.9048 51.25 15.7663 51.25 18.75C51.25 21.7337 50.0647 24.5952 47.9549 26.705C45.8452 28.8147 42.9837 30 40 30C37.0163 30 34.1548 28.8147 32.045 26.705C29.9353 24.5952 28.75 21.7337 28.75 18.75ZM15 17.5C13.0109 17.5 11.1032 18.2902 9.6967 19.6967C8.29018 21.1032 7.5 23.0109 7.5 25C7.5 26.9891 8.29018 28.8968 9.6967 30.3033C11.1032 31.7098 13.0109 32.5 15 32.5C16.9891 32.5 18.8968 31.7098 20.3033 30.3033C21.7098 28.8968 22.5 26.9891 22.5 25C22.5 23.0109 21.7098 21.1032 20.3033 19.6967C18.8968 18.2902 16.9891 17.5 15 17.5ZM5 25C5 22.3478 6.05357 19.8043 7.92893 17.9289C9.8043 16.0536 12.3478 15 15 15C17.6522 15 20.1957 16.0536 22.0711 17.9289C23.9464 19.8043 25 22.3478 25 25C25 27.6522 23.9464 30.1957 22.0711 32.0711C20.1957 33.9464 17.6522 35 15 35C12.3478 35 9.8043 33.9464 7.92893 32.0711C6.05357 30.1957 5 27.6522 5 25ZM57.5 25C57.5 23.0109 58.2902 21.1032 59.6967 19.6967C61.1032 18.2902 63.0109 17.5 65 17.5C66.9891 17.5 68.8968 18.2902 70.3033 19.6967C71.7098 21.1032 72.5 23.0109 72.5 25C72.5 26.9891 71.7098 28.8968 70.3033 30.3033C68.8968 31.7098 66.9891 32.5 65 32.5C63.0109 32.5 61.1032 31.7098 59.6967 30.3033C58.2902 28.8968 57.5 26.9891 57.5 25ZM65 15C62.3478 15 59.8043 16.0536 57.9289 17.9289C56.0536 19.8043 55 22.3478 55 25C55 27.6522 56.0536 30.1957 57.9289 32.0711C59.8043 33.9464 62.3478 35 65 35C67.6522 35 70.1957 33.9464 72.0711 32.0711C73.9464 30.1957 75 27.6522 75 25C75 22.3478 73.9464 19.8043 72.0711 17.9289C70.1957 16.0536 67.6522 15 65 15ZM25 41.25C25 39.5924 25.6585 38.0027 26.8306 36.8306C28.0027 35.6585 29.5924 35 31.25 35H48.75C50.4076 35 51.9973 35.6585 53.1694 36.8306C54.3415 38.0027 55 39.5924 55 41.25V55C55 58.9782 53.4197 62.7936 50.6066 65.6066C47.7936 68.4197 43.9782 70 40 70C36.0218 70 32.2064 68.4197 29.3934 65.6066C26.5804 62.7936 25 58.9782 25 55V41.25ZM31.25 37.5C30.2554 37.5 29.3016 37.8951 28.5983 38.5983C27.8951 39.3016 27.5 40.2554 27.5 41.25V55C27.5 58.3152 28.817 61.4946 31.1612 63.8388C33.5054 66.183 36.6848 67.5 40 67.5C43.3152 67.5 46.4946 66.183 48.8388 63.8388C51.183 61.4946 52.5 58.3152 52.5 55V41.25C52.5 40.2554 52.1049 39.3016 51.4016 38.5983C50.6984 37.8951 49.7446 37.5 48.75 37.5H31.25ZM22.725 39.2675C22.5747 39.9176 22.4992 40.5827 22.5 41.25V41.9175L10.28 45.1925C9.32025 45.4503 8.50208 46.0785 8.0052 46.9391C7.50832 47.7998 7.37338 48.8224 7.63 49.7825L9.895 58.235C10.357 59.9603 11.1834 61.5665 12.3184 62.9454C13.4535 64.3244 14.8708 65.4442 16.4751 66.2292C18.0793 67.0143 19.8332 67.4465 21.6185 67.4966C23.4039 67.5468 25.1792 67.2138 26.825 66.52C27.4133 67.1917 28.0492 67.8158 28.7325 68.3925C26.7417 69.3985 24.5517 69.9479 22.3218 70.0007C20.0919 70.0535 17.8783 69.6083 15.8422 68.6975C13.8061 67.7867 11.9987 66.4333 10.5517 64.7359C9.1047 63.0384 8.05448 61.0396 7.4775 58.885L5.215 50.43C5.00253 49.6371 4.94832 48.8102 5.05546 47.9964C5.16261 47.1826 5.42901 46.3979 5.83945 45.687C6.24989 44.9762 6.79634 44.3531 7.44758 43.8535C8.09883 43.3538 8.84212 42.9874 9.635 42.775L22.725 39.2675ZM51.2675 68.3925C52.1725 68.8475 53.1342 69.2133 54.1525 69.49C57.9952 70.5193 62.0893 69.9799 65.5343 67.9907C68.9793 66.0014 71.493 62.7251 72.5225 58.8825L74.7875 50.4325C75.2167 48.8316 74.9924 47.1258 74.164 45.6902C73.3356 44.2546 71.9708 43.2069 70.37 42.7775L57.275 39.2675C57.425 39.9058 57.5 40.5667 57.5 41.25V41.9175L69.7225 45.1925C70.6822 45.4503 71.5004 46.0785 71.9973 46.9391C72.4942 47.7998 72.6291 48.8224 72.3725 49.7825L70.11 58.235C69.6481 59.9609 68.8216 61.5677 67.6862 62.9471C66.5509 64.3266 65.133 65.4466 63.5281 66.2318C61.9232 67.0169 60.1687 67.4489 58.3828 67.4986C56.5969 67.5483 54.8211 67.2146 53.175 66.52C52.5867 67.19 51.9508 67.8158 51.2675 68.3925Z" fill="#0077B6"/>
</svg>
