<svg width="54" height="54" viewBox="0 0 54 54" fill="none" xmlns="http://www.w3.org/2000/svg">
<path d="M0.333008 23.6663V0.333008H23.6663V23.6663H0.333008ZM3.66634 20.333H20.333V3.66634H3.66634V20.333ZM0.333008 53.6663V30.333H23.6663V53.6663H0.333008ZM3.66634 50.333H20.333V33.6663H3.66634V50.333ZM30.333 23.6663V0.333008H53.6663V23.6663H30.333ZM33.6663 20.333H50.333V3.66634H33.6663V20.333ZM47.833 53.6663V47.833H53.6663V53.6663H47.833ZM30.333 36.1663V30.333H36.1663V36.1663H30.333ZM36.1663 41.9997V36.1663H41.9997V41.9997H36.1663ZM30.333 47.833V41.9997H36.1663V47.833H30.333ZM36.1663 53.6663V47.833H41.9997V53.6663H36.1663ZM41.9997 47.833V41.9997H47.833V47.833H41.9997ZM41.9997 36.1663V30.333H47.833V36.1663H41.9997ZM47.833 41.9997V36.1663H53.6663V41.9997H47.833Z" fill="white"/>
</svg>
