<svg width="80" height="80" viewBox="0 0 80 80" fill="none" xmlns="http://www.w3.org/2000/svg">
<path d="M40 11.6667C50.1867 11.6667 58.3333 19.59 58.3333 29.2333C58.3333 35.13 56.8 38.1967 54.8567 40.9567C54.4056 41.5856 53.9222 42.2333 53.4067 42.9C51.6667 45.1767 49.67 47.7967 48.2267 51.6333C47.8911 52.5297 47.455 53.3852 46.9267 54.1833L46.7667 54.41C46.3067 55.0611 45.8022 55.6411 45.2533 56.15C43.7667 57.5133 41.9533 58.3333 40 58.3333C37.3167 58.3333 34.92 56.81 33.2333 54.41L33.0767 54.1833C32.5472 53.3853 32.11 52.5299 31.7733 51.6333C30.33 47.7967 28.3333 45.1767 26.5933 42.9C26.0778 42.2333 25.5944 41.5856 25.1433 40.9567C23.2033 38.1967 21.6667 35.13 21.6667 29.23C21.6667 19.59 29.8133 11.6667 40 11.6667ZM49.7467 55.9467C50.4 54.9567 50.9367 53.8933 51.3467 52.8033C52.6 49.47 54.2133 47.3533 55.9 45.1433C56.4533 44.41 57.02 43.6733 57.58 42.8767C59.8633 39.6333 61.6667 35.91 61.6667 29.23C61.6667 17.6333 51.9033 8.33334 40 8.33334C28.0967 8.33334 18.3333 17.63 18.3333 29.2333C18.3333 35.9067 20.1367 39.6333 22.42 42.8733C22.98 43.6733 23.5467 44.4133 24.1033 45.14C25.7867 47.3533 27.4033 49.4733 28.6533 52.8067C29.0633 53.8933 29.6 54.9567 30.2533 55.9467L31.01 63.5333C31.2333 65.7621 32.2766 67.8284 33.9375 69.3312C35.5985 70.834 37.7585 71.6661 39.9983 71.6661C42.2382 71.6661 44.3982 70.834 46.0591 69.3312C47.72 67.8284 48.7634 65.7621 48.9867 63.5333L49.7467 55.9467ZM46.0133 59.79L45.6667 63.2C45.5221 64.6032 44.8624 65.903 43.8151 66.8479C42.7678 67.7929 41.4073 68.316 39.9967 68.316C38.586 68.316 37.2255 67.7929 36.1782 66.8479C35.1309 65.903 34.4712 64.6032 34.3267 63.2L33.9833 59.79C35.7541 61.0073 37.8512 61.6614 40 61.6667C42.1477 61.6608 44.2435 61.0067 46.0133 59.79ZM8.72 10.6C9.00297 10.2606 9.40912 10.0475 9.84917 10.0075C10.2892 9.96753 10.7271 10.1039 11.0667 10.3867L16.0667 14.5533C16.2408 14.6915 16.3855 14.863 16.4923 15.0579C16.5991 15.2528 16.6658 15.4671 16.6886 15.6881C16.7114 15.9092 16.6897 16.1326 16.6249 16.3452C16.5601 16.5577 16.4534 16.7552 16.3111 16.9259C16.1688 17.0967 15.9938 17.2372 15.7965 17.3393C15.5991 17.4414 15.3832 17.503 15.1617 17.5205C14.9401 17.5379 14.7173 17.5109 14.5064 17.441C14.2954 17.3711 14.1006 17.2597 13.9333 17.1133L8.93333 12.9467C8.59397 12.6637 8.38086 12.2576 8.34085 11.8175C8.30085 11.3775 8.43722 10.9395 8.72 10.6ZM71.28 10.6C71.5628 10.9395 71.6992 11.3775 71.6591 11.8175C71.6191 12.2576 71.406 12.6637 71.0667 12.9467L66.0667 17.1133C65.7258 17.3838 65.2927 17.5102 64.8599 17.4656C64.4271 17.421 64.0289 17.209 63.7504 16.8747C63.4718 16.5405 63.335 16.1105 63.3692 15.6768C63.4034 15.243 63.6059 14.8398 63.9333 14.5533L68.9333 10.3867C69.2729 10.1039 69.7108 9.96753 70.1508 10.0075C70.5909 10.0475 70.997 10.2606 71.28 10.6ZM5 27.5C5 27.058 5.17559 26.6341 5.48816 26.3215C5.80072 26.0089 6.22464 25.8333 6.66667 25.8333H13.3333C13.7754 25.8333 14.1993 26.0089 14.5118 26.3215C14.8244 26.6341 15 27.058 15 27.5C15 27.942 14.8244 28.366 14.5118 28.6785C14.1993 28.9911 13.7754 29.1667 13.3333 29.1667H6.66667C6.22464 29.1667 5.80072 28.9911 5.48816 28.6785C5.17559 28.366 5 27.942 5 27.5ZM65 27.5C65 27.058 65.1756 26.6341 65.4882 26.3215C65.8007 26.0089 66.2246 25.8333 66.6667 25.8333H73.3333C73.7754 25.8333 74.1993 26.0089 74.5118 26.3215C74.8244 26.6341 75 27.058 75 27.5C75 27.942 74.8244 28.366 74.5118 28.6785C74.1993 28.9911 73.7754 29.1667 73.3333 29.1667H66.6667C66.2246 29.1667 65.8007 28.9911 65.4882 28.6785C65.1756 28.366 65 27.942 65 27.5ZM16.49 40.0867C16.688 40.4819 16.7209 40.9395 16.5815 41.359C16.4421 41.7784 16.1418 42.1253 15.7467 42.3233L10.7467 44.8233C10.5508 44.9234 10.337 44.9837 10.1177 45.0008C9.89846 45.0178 9.67795 44.9913 9.46896 44.9228C9.25996 44.8542 9.0666 44.7449 8.90002 44.6013C8.73345 44.4577 8.59696 44.2825 8.49841 44.0858C8.39987 43.8892 8.34123 43.675 8.32586 43.4555C8.3105 43.2361 8.33872 43.0158 8.4089 42.8074C8.47907 42.5989 8.58982 42.4064 8.73475 42.2409C8.87968 42.0755 9.05593 41.9404 9.25333 41.8433L14.2533 39.3433C14.6485 39.1453 15.1062 39.1124 15.5256 39.2518C15.9451 39.3912 16.292 39.6915 16.49 40.0867ZM63.51 40.0867C63.708 39.6924 64.0544 39.3927 64.473 39.2534C64.8917 39.114 65.3485 39.1464 65.7433 39.3433L70.7433 41.8433C70.946 41.937 71.1277 42.0703 71.2778 42.2355C71.428 42.4007 71.5434 42.5943 71.6172 42.805C71.6911 43.0156 71.7218 43.2389 71.7077 43.4617C71.6936 43.6844 71.6349 43.9021 71.5351 44.1017C71.4353 44.3014 71.2964 44.4789 71.1266 44.6239C70.9569 44.7688 70.7598 44.8782 70.547 44.9455C70.3341 45.0128 70.11 45.0366 69.8877 45.0157C69.6655 44.9947 69.4498 44.9293 69.2533 44.8233L64.2533 42.3233C63.859 42.1253 63.5594 41.779 63.42 41.3603C63.2807 40.9417 63.313 40.4848 63.51 40.09" fill="#0077B6"/>
</svg>
