<?xml version="1.0" encoding="UTF-8"?>
<svg id="Calque_1" data-name="Calque 1" xmlns="http://www.w3.org/2000/svg" viewBox="0 0 1417.3 1417.3">
  <defs>
    <style>
      .cls-1 {
        fill: #fff;
      }

      .cls-2 {
        fill: #3974ea;
      }

      .cls-3 {
        fill: #33c12b;
      }
    </style>
  </defs>
  <rect x="-1.3" y="1.7" width="1423.9" height="1420.3"/>
  <g>
    <rect class="cls-2" x="345.5" y="684.2" width="111.6" height="123.3"/>
    <rect class="cls-2" x="472.9" y="606.9" width="111.6" height="123.3"/>
    <rect class="cls-3" x="397.2" y="606.9" width="55.8" height="61.7"/>
    <rect class="cls-3" x="473.3" y="745.9" width="55.8" height="61.7"/>
    <g>
      <path class="cls-1" d="M688.7,605.8c1.7,0,3.1,1.8,4.1,5.3s1.6,6.9,1.6,9.9-1,4.6-3,4.6-1.4-.2-1.9-.7c-.6-.4-1.4-2-2.4-4.7-1-2.7-2.5-4.5-4.6-5.5-2-1-4.2-1.5-6.6-1.5-3.4,0-5.8.8-7.4,2.4-1.5,1.6-2.3,4.1-2.3,7.7v79.5c0,1.2.4,2.3,1.1,3.2.7.9,2.2,1.7,4.5,2.4,2.3.7,3.7,1.3,4.2,1.8.5.5.8,1.1.8,1.7,0,2.6-1.4,3.9-4.1,3.9s-3.7-.2-6.6-.7c-2.9-.5-5-.7-6.4-.7s-3.2.2-5.7.6c-2.5.4-4.4.6-5.7.6s-2.9-.4-4-1.1c-1.1-.7-1.6-1.7-1.6-3s.2-1.2.6-1.6,1.7-1.1,4-1.7,3.8-1.7,4.5-3.1c.8-1.4,1.2-3,1.2-4.7v-80.3c0-4.8-3.3-7.3-9.8-7.3s-7.3,1-9,2.9c-1.1,1.1-1.9,2.8-2.4,5.1-.5,2.3-1,3.6-1.5,4.1-.5.4-1.2.6-1.9.6s-1.6-.2-2.3-.6c-.7-.4-1.1-1-1.1-1.6,0-5.5.5-9.7,1.4-12.8s2.3-4.6,4.1-4.6h58.3Z"/>
      <path class="cls-1" d="M776.3,620.2c0-2-.7-3.7-2.1-4.9-1.4-1.2-3.2-1.8-5.4-1.8s-3.1-.3-4.1-.9-1.6-1.4-1.6-2.3.5-2,1.5-2.7,2-1,3.2-1,2.6.3,6.1.9c3.5.6,5.8.9,6.9.9s3.5-.2,5.9-.7,4.3-.7,5.4-.7c3,0,4.5,1.2,4.5,3.6s-1.5,2.9-4.5,2.9-4.5.4-5.7,1.2c-1.2.8-2,1.8-2.2,2.9-.3,1.1-.4,2.6-.4,4.3v74.9c0,5,.5,8.9,1.6,11.6,1.1,2.7,1.6,4.9,1.6,6.5s-.7,2.3-2,2.3-1.7-.2-2.2-.6c-.5-.4-1.2-1.3-2.2-2.7l-62.5-82.6c-.7-.8-1.3-1.3-1.8-1.3s-1.1.9-1.1,2.8v69.2c0,2.1.9,3.8,2.7,5,1.8,1.2,3.5,1.9,5.1,1.9,4,0,6,1.3,6,3.9s-.2,1.5-.7,2c-.4.5-1.5.8-3.1.8s-4-.2-7.2-.6c-3.2-.4-5.3-.6-6.2-.6s-3.5.2-6.6.6c-3.1.4-5,.6-5.8.6-2.5,0-3.8-1.2-3.8-3.6s1.5-3,4.5-3,4.4-.7,5.9-2.1c1.5-1.4,2.2-3.3,2.2-5.9v-79.8c0-2.4-.6-4.4-1.9-5.8-1.2-1.4-2.8-2.2-4.7-2.2s-4.3-.3-5.1-.8c-.9-.6-1.3-1.4-1.3-2.6,0-2.1,1.3-3.1,3.8-3.1s1.6.1,3.4.4c1.8.3,3.3.4,4.5.4s2-.1,3.2-.4,2.3-.4,3.1-.4c1.4,0,3.2,1.2,5.3,3.5,2.1,2.3,9.4,11.8,21.8,28.4l33.2,44.2c.6.8,1.1,1.1,1.6,1.1,1.1,0,1.7-1.3,1.7-4.1v-59.9Z"/>
      <path class="cls-1" d="M845.6,648.4c-.9,1.3-1.3,2.2-1.3,2.7s.2.9.6,1.4l38.6,51.8c1.2,1.3,2.5,2.2,4,2.8,1.5.6,2.7.9,3.6.9s1.9.3,2.7.8c.8.6,1.2,1.3,1.2,2.1,0,1.4-.6,2.4-1.8,3.2-1.2.8-2.8,1.1-4.6,1.1-3.9,0-8.2-1.5-12.8-4.5-4.6-3-8.8-7-12.6-12l-26.8-35.3c-.6-.7-1-1-1.2-1s-.6.3-1.1.9l-9.8,12.4c-.4.6-.6,1.2-.6,2v24.7c0,1.4.4,2.5,1.1,3.5.7,1,2.3,1.7,4.6,2.2,2.3.4,3.8.9,4.2,1.5.5.5.7,1.2.7,2s-.6,1.7-1.9,2.4c-1.2.7-3.1,1.1-5.5,1.1s-2.8-.2-4.9-.7c-2.1-.5-3.9-.7-5.5-.7s-4.6.3-7.3.9c-2.7.6-4.6.9-5.9.9s-2.3-.4-3.4-1.1c-1.1-.7-1.6-1.7-1.6-2.9s.2-1.5.8-2.1c.5-.6,2.1-1,4.9-1.2s4.5-1.1,5.4-2.7c.8-1.6,1.3-3.4,1.3-5.4v-78.5c0-1.9-.4-3.7-1.2-5.2-.8-1.5-2.6-2.4-5.2-2.7-2.7-.3-4.3-.7-4.8-1.3-.5-.6-.8-1.3-.8-2.1s.5-1.7,1.6-2.6,2.6-1.4,4.5-1.4,4.2.3,7,.8c2.8.6,5.1.8,7,.8s2.7-.3,4.6-.9c1.9-.6,4-.9,6.4-.9s3.5.4,4.8,1.1c1.2.7,1.8,1.6,1.8,2.6s-.3,1.4-.9,2c-.6.6-2,1.1-4.2,1.7s-3.7,1.1-4.6,1.5c-.9.4-1.6,1.2-2.1,2.4-.5,1.2-.8,3-.8,5.4v40.6l.2,1.5,1.1-1.1,33.3-43.9c1.7-2.1,2.5-3.6,2.5-4.5s-.3-1.1-.8-1.5c-.5-.4-1.9-.7-4-.9-2.2-.2-3.6-.6-4.2-1.2-.7-.6-1-1.3-1-2.2s.5-2.1,1.6-2.7c1.1-.7,2.4-1,3.9-1s3.1.2,5.2.6c2.1.4,3.5.6,4.2.6s2.5-.2,4.9-.7c2.4-.5,4.2-.7,5.5-.7s2.5.4,3.3,1.1c.9.7,1.3,1.7,1.3,2.8s-.2,1.2-.6,1.6c-.4.4-2.1,1.1-4.9,1.9-2.9.9-5.1,2.3-6.6,4.4l-22.9,30.6Z"/>
    </g>
    <g>
      <path class="cls-2" d="M628.5,807.9l-.4-14.8h4l2.5,7c.1.4.4.7.7,1.1.3.3.7.6.9.8,1,.6,2.1,1.2,3.4,1.8s2.7,1,4.1,1.4c1.4.3,2.6.5,3.7.5,2.9,0,5.3-.7,7.1-2.2,1.8-1.5,2.7-3.3,2.7-5.6s-.6-3.5-1.7-4.5c-1.2-1-2.8-2-4.9-2.8-2-.8-3.9-1.4-5.9-1.9-1.9-.5-3.8-1.1-5.7-1.8-3-1.2-5.3-2.9-7-5.2-1.7-2.3-2.6-5.1-2.6-8.3s.9-5.7,2.7-8c1.8-2.3,4.2-4.1,7.1-5.4,2.9-1.3,6.1-2,9.6-2s4,.1,6,.4c2,.2,4,.5,5.8.9,1.8.3,3.5.7,4.9,1.1v14.1h-3.9l-2.3-6.6c-.1-.4-.3-.7-.7-1-.3-.3-.6-.6-.9-.8-.6-.4-1.4-.8-2.5-1.2s-2.2-.7-3.4-1c-1.2-.3-2.3-.4-3.2-.4-2.7,0-4.8.7-6.3,2-1.5,1.4-2.2,2.9-2.2,4.5s.5,3.2,1.5,4.5c1,1.2,2.8,2.3,5.5,3.2,1.9.6,3.7,1.2,5.5,1.7,1.8.5,3.7,1.2,5.9,2,1.7.7,3.3,1.6,4.8,2.7,1.5,1.2,2.7,2.6,3.7,4.3.9,1.7,1.4,3.8,1.4,6.3s-.8,5.5-2.3,8c-1.5,2.5-3.9,4.6-7.2,6.1-3.2,1.6-7.4,2.3-12.4,2.3s-3.8-.2-5.9-.5-4.1-.7-6.2-1.2c-2.1-.5-4-1-5.8-1.5Z"/>
      <path class="cls-2" d="M683.8,809.9v-2.8l5.7-1.9c.5-.1.8-.3,1.1-.6.3-.3.4-.7.4-1.3v-13.2l-14.2-25c-.2-.4-.5-.8-.8-1.1-.3-.4-.7-.7-1.1-.8l-3.9-1.5v-2.8h23v2.8l-6,1.9,9.3,16,2.1,4.4h.4c0,0,11.5-20,11.5-20l-5.8-2.3v-2.8h17.2v2.8l-3.8,1.7c-.4.2-.8.5-1.1.8s-.6.8-.9,1.1l-14.5,24.5v13.4c0,.6.1,1,.4,1.3s.6.5,1.1.6l5.7,1.9v2.8h-25.8Z"/>
      <path class="cls-2" d="M724.7,809.9v-2.8l5.2-2.1c.4-.2.8-.4,1.1-.7.3-.3.4-.7.4-1.2v-37.7c0-.5-.1-.9-.4-1.2-.3-.3-.6-.5-1-.6l-5.5-1.9v-2.8h17.7l21.7,31.2,3,4.7h.4v-29.2c0-.5-.1-.9-.4-1.2-.3-.3-.6-.5-1.1-.6l-5.2-2.1v-2.8h19.5v2.8l-5.2,2.1c-.4.1-.8.4-1.1.6-.3.3-.5.7-.5,1.2v36.2l-1.1,8.4h-7.1l-24-34.4-3.1-5h-.4v32.2c0,.6.1,1,.4,1.2.3.3.6.5,1,.7l5.2,2.1v2.8h-19.5Z"/>
      <path class="cls-2" d="M784.5,809.9v-2.8l5.2-1.9c.4-.1.8-.4,1.1-.7s.4-.7.4-1.2v-38c0-.5-.1-.9-.4-1.2s-.6-.5-1.1-.6l-5.2-1.9v-2.8h43.2v14h-4l-2.4-7.3c-.1-.4-.3-.7-.5-1s-.5-.4-1-.4h-17.2v16.6h10c.5,0,.8-.1,1-.3.2-.2.4-.5.5-1l2.1-5.7h3.4v19.2h-3.4l-2.1-5.7c-.1-.4-.3-.7-.5-1-.2-.3-.5-.4-1-.4h-10v18.6h20.1c.4,0,.7-.1,1-.4s.4-.6.5-1l2.3-8.2h4v14.9h-46Z"/>
      <path class="cls-2" d="M836.1,809.9v-2.8l5.2-1.9c.4-.1.8-.4,1-.7.3-.3.4-.7.4-1.2v-38c0-.5-.1-.9-.4-1.2-.3-.3-.6-.5-1-.6l-5.2-1.9v-2.8h24.5c4,0,7.2.4,9.7,1.1,2.5.8,4.5,1.8,5.9,3,1.4,1.2,2.4,2.6,2.9,4.1s.8,3,.8,4.6c0,2.7-.6,4.9-1.7,6.8-1.1,1.9-2.6,3.3-4.3,4.5-1.7,1.1-3.4,2-5.1,2.5l-7.4,3.7-7.9-2.1.4-4.3c.1,0,.5.1,1.2.2.7,0,1.4.1,2.2.2.8,0,1.4,0,1.8,0,2,0,3.6-.5,4.9-1.4,1.3-.9,2.2-2.2,2.8-3.6.6-1.5.9-3,.9-4.7,0-3.3-.8-5.7-2.4-7.2-1.6-1.5-3.9-2.3-6.9-2.3h-4.4v39.2c0,.6.1,1,.4,1.3s.6.5,1.1.6l5.5,1.9v2.8h-25ZM889.9,809.9h-12.6c-1.6,0-2.8-.2-3.6-.5-.8-.3-1.5-.8-2-1.6s-1.2-1.6-2-2.8l-11-17.1,10.5-3.2,12.4,18.2c.3.5.8,1,1.4,1.6.6.5,1.2.9,1.7,1.1l5.2,1.6v2.8Z"/>
      <path class="cls-2" d="M924.9,803.4v-10.8c0-.5-.1-.9-.4-1.2-.3-.3-.6-.5-1.1-.7l-6.4-1.9v-2.7h25.2v2.7l-4.6,1.9c-.4.2-.8.4-1,.7-.3.3-.4.7-.4,1.2v5.6c0,2.1,0,4,0,5.5,0,1.5,0,2.7.2,3.6-2.7,1-5.9,1.8-9.6,2.6-3.7.7-7.5,1.1-11.2,1.1s-9-1-13-3.1c-3.9-2.1-7.1-5.1-9.4-9s-3.5-8.8-3.5-14.4,1.2-10.1,3.5-14.1,5.5-7.1,9.6-9.3,8.6-3.3,13.8-3.3,4.9.1,7.1.3c2.2.2,4.3.5,6.3.9s4,.9,6,1.4v13.6h-4l-2.2-6.7c0-.3-.3-.6-.6-.9s-.6-.4-1-.6c-1.6-.8-3.5-1.4-5.8-1.9s-4.3-.7-6.2-.7-4.9.7-7.1,2.2c-2.2,1.5-3.9,3.7-5.2,6.6-1.3,3-2,6.7-2,11.1s.6,8.2,1.7,11.6c1.1,3.4,2.8,6,5,7.9s4.9,2.9,8,2.9,2.2-.1,3.2-.3c1-.2,1.9-.5,2.8-.8s1.7-.7,2.5-1.1Z"/>
      <path class="cls-2" d="M946.1,809.9v-2.8l5.4-1.9c.5-.1.8-.4,1.1-.7s.4-.7.4-1.2v-38c0-.5-.2-.9-.5-1.2-.3-.3-.6-.5-1-.6l-5.4-1.9v-2.8h25.1v2.8l-5.4,1.9c-.4.1-.8.3-1.1.6s-.5.7-.5,1.2v38c0,.6.1,1,.5,1.3.3.3.7.5,1.1.6l5.4,1.9v2.8h-25.1Z"/>
      <path class="cls-2" d="M976.5,809.9v-2.8l5.2-1.9c.4-.1.8-.4,1.1-.7s.4-.7.4-1.2v-38c0-.5-.1-.9-.4-1.2s-.6-.5-1.1-.6l-5.2-1.9v-2.8h43.2v14h-4l-2.4-7.3c-.1-.4-.3-.7-.5-1s-.5-.4-1-.4h-17.2v16.6h10c.5,0,.8-.1,1-.3.2-.2.4-.5.5-1l2.1-5.7h3.4v19.2h-3.4l-2.1-5.7c-.1-.4-.3-.7-.5-1-.2-.3-.5-.4-1-.4h-10v18.6h20.1c.4,0,.7-.1,1-.4s.4-.6.5-1l2.3-8.2h4v14.9h-46Z"/>
      <path class="cls-2" d="M1029,807.9l-.4-14.8h4l2.5,7c.1.4.4.7.7,1.1.3.3.7.6.9.8,1,.6,2.1,1.2,3.4,1.8s2.7,1,4.1,1.4c1.4.3,2.6.5,3.7.5,2.9,0,5.3-.7,7.1-2.2s2.7-3.3,2.7-5.6-.6-3.5-1.7-4.5c-1.2-1-2.8-2-4.9-2.8-2-.8-3.9-1.4-5.9-1.9-1.9-.5-3.8-1.1-5.7-1.8-3-1.2-5.3-2.9-7-5.2-1.7-2.3-2.6-5.1-2.6-8.3s.9-5.7,2.7-8c1.8-2.3,4.2-4.1,7.1-5.4,2.9-1.3,6.1-2,9.6-2s4,.1,6,.4c2,.2,4,.5,5.8.9,1.8.3,3.5.7,4.9,1.1v14.1h-3.9l-2.3-6.6c-.1-.4-.3-.7-.7-1-.3-.3-.6-.6-.9-.8-.6-.4-1.4-.8-2.5-1.2-1.1-.4-2.2-.7-3.4-1-1.2-.3-2.3-.4-3.2-.4-2.7,0-4.8.7-6.3,2-1.5,1.4-2.2,2.9-2.2,4.5s.5,3.2,1.5,4.5c1,1.2,2.8,2.3,5.5,3.2,1.9.6,3.7,1.2,5.5,1.7,1.8.5,3.7,1.2,5.9,2,1.7.7,3.3,1.6,4.8,2.7,1.5,1.2,2.7,2.6,3.7,4.3.9,1.7,1.4,3.8,1.4,6.3s-.8,5.5-2.3,8c-1.5,2.5-3.9,4.6-7.2,6.1-3.2,1.6-7.4,2.3-12.4,2.3s-3.8-.2-5.9-.5-4.1-.7-6.2-1.2c-2.1-.5-4-1-5.8-1.5Z"/>
    </g>
    <g>
      <path class="cls-1" d="M1009.7,738.3v-1.1l2-.7c.2,0,.3-.1.4-.3s.2-.3.2-.5v-14.6c0-.2,0-.4-.2-.5s-.2-.2-.4-.2l-2-.7v-1.1h9.6v1.1l-2,.7c-.2,0-.3.1-.4.2s-.2.3-.2.5v15.1h6.6c.2,0,.3,0,.4-.2,0-.1.2-.3.2-.4l1-3.9h1.6v6.6h-16.7Z"/>
      <path class="cls-1" d="M1030.2,738.3v-1.1l2.2-.7c.2,0,.3-.1.4-.3.1-.1.2-.3.2-.5v-15.1h-4.1c-.2,0-.3,0-.4.1,0,0-.2.2-.2.4l-.9,3h-1.5v-5.6h18.6v5.6h-1.5l-.9-3c0-.2-.1-.3-.2-.4,0,0-.2-.1-.4-.1h-4.1v15.1c0,.2,0,.4.2.5s.3.2.4.2l2.2.7v1.1h-10Z"/>
      <path class="cls-1" d="M1046.1,738.3v-1.1l2-.7c.2,0,.3-.1.4-.3.1-.1.2-.3.2-.5v-14.6c0-.2,0-.4-.2-.5-.1-.1-.2-.2-.4-.2l-2-.7v-1.1h9.6c.8,0,1.7,0,2.7.3s1.9.5,2.8.9,1.7,1,2.5,1.8c.7.8,1.3,1.7,1.8,2.8.4,1.1.7,2.5.7,4.1s-.5,4.1-1.4,5.5c-.9,1.4-2.2,2.5-3.8,3.2-1.6.7-3.3,1.1-5.3,1.1h-9.5ZM1053.1,720.7v15.6h2.7c1.9,0,3.3-.6,4.2-1.9.9-1.3,1.3-3.1,1.3-5.4s-.3-3.2-.8-4.4c-.5-1.2-1.2-2.2-2.2-2.8-.9-.7-2-1-3.3-1h-2Z"/>
    </g>
  </g>
</svg>