<svg width="192" height="55" viewBox="0 0 192 55" fill="none" xmlns="http://www.w3.org/2000/svg">
<path d="M29.6201 20.8348H0V53.5602H29.6201V20.8348Z" fill="#3974EA"/>
<path d="M63.4336 0.318481H33.8135V33.0439H63.4336V0.318481Z" fill="#3974EA"/>
<path d="M28.5317 0.318481H13.7217V16.6944H28.5317V0.318481Z" fill="#33C12B"/>
<path d="M48.729 37.2109H33.9189V53.5869H48.729V37.2109Z" fill="#33C12B"/>
<path d="M91.0894 0.0266113C91.5406 0.0266113 91.9122 0.504351 92.1776 1.4333C92.443 2.36224 92.6023 3.26465 92.6023 4.06089C92.6023 4.85713 92.3369 5.28178 91.806 5.28178C91.2752 5.28178 91.4345 5.22871 91.3017 5.09601C91.1425 4.98984 90.9302 4.56518 90.6648 3.84856C90.3993 3.13195 90.0012 2.65421 89.4439 2.38879C88.913 2.12338 88.3291 1.99067 87.6921 1.99067C86.7897 1.99067 86.1527 2.20299 85.7281 2.62765C85.33 3.05232 85.1176 3.71585 85.1176 4.67134V25.7717C85.1176 26.0902 85.2238 26.3821 85.4096 26.621C85.5954 26.8599 85.9935 27.0722 86.6039 27.258C87.2144 27.4438 87.586 27.603 87.7187 27.7357C87.8514 27.8684 87.931 28.0277 87.931 28.1869C87.931 28.877 87.5594 29.222 86.8428 29.222C86.1262 29.222 85.8608 29.1689 85.0911 29.0362C84.3214 28.9035 83.764 28.8505 83.3924 28.8505C83.0209 28.8505 82.5431 28.9035 81.8796 29.0097C81.2161 29.1159 80.7118 29.1689 80.3667 29.1689C80.0217 29.1689 79.597 29.0628 79.3051 28.877C79.0131 28.6912 78.8804 28.4258 78.8804 28.0808C78.8804 27.7357 78.9335 27.7623 79.0397 27.6561C79.1458 27.5499 79.4909 27.3641 80.1013 27.2049C80.7118 27.0457 81.1099 26.7537 81.2957 26.3821C81.508 26.0105 81.6142 25.5859 81.6142 25.1347V3.82201C81.6142 2.54803 80.7383 1.8845 79.0131 1.8845C77.288 1.8845 77.0756 2.14992 76.6244 2.65421C76.3325 2.94616 76.1201 3.39736 75.9874 4.0078C75.8547 4.61825 75.722 4.9633 75.5893 5.09601C75.4566 5.20217 75.2708 5.25525 75.085 5.25525C74.8992 5.25525 74.6604 5.20217 74.4746 5.09601C74.2888 4.98984 74.1826 4.83058 74.1826 4.67134C74.1826 3.21157 74.3153 2.09684 74.5542 1.27406C74.7931 0.451275 75.1646 0.0531623 75.6424 0.0531623H91.116L91.0894 0.0266113Z" fill="white"/>
<path d="M114.339 3.84852C114.339 3.31769 114.154 2.86648 113.782 2.54799C113.41 2.22949 112.933 2.07025 112.349 2.07025C111.765 2.07025 111.526 1.99062 111.261 1.83137C110.995 1.67212 110.836 1.45979 110.836 1.22092C110.836 0.982051 110.969 0.690094 111.234 0.504304C111.5 0.318515 111.765 0.238892 112.083 0.238892C112.402 0.238892 112.774 0.318522 113.702 0.47777C114.631 0.637017 115.242 0.716648 115.534 0.716648C115.826 0.716648 116.463 0.663562 117.1 0.530856C117.737 0.398149 118.241 0.345063 118.533 0.345063C119.329 0.345063 119.727 0.663552 119.727 1.30054C119.727 1.93753 119.329 2.07025 118.533 2.07025C117.737 2.07025 117.339 2.17642 117.02 2.38875C116.702 2.60108 116.489 2.86648 116.436 3.15843C116.357 3.45039 116.33 3.84852 116.33 4.29972V24.1791C116.33 25.5062 116.463 26.5413 116.755 27.2579C117.047 27.9746 117.179 28.5585 117.179 28.9831C117.179 29.4078 116.994 29.5936 116.649 29.5936C116.303 29.5936 116.197 29.5405 116.065 29.4343C115.932 29.3281 115.746 29.0893 115.481 28.7177L98.8924 6.79459C98.7066 6.58226 98.5474 6.44956 98.4147 6.44956C98.282 6.44956 98.1227 6.68843 98.1227 7.19271V25.5593C98.1227 26.1167 98.3616 26.5679 98.8393 26.8864C99.3171 27.2048 99.7683 27.3906 100.193 27.3906C101.255 27.3906 101.785 27.7357 101.785 28.4257C101.785 29.1158 101.732 28.8239 101.6 28.9566C101.493 29.0893 101.202 29.1689 100.777 29.1689C100.352 29.1689 99.7152 29.1158 98.8659 29.0097C98.0165 28.9035 97.4592 28.8504 97.2203 28.8504C96.9814 28.8504 96.2914 28.9035 95.4686 29.0097C94.6458 29.1158 94.1415 29.1689 93.9292 29.1689C93.2657 29.1689 92.9206 28.8504 92.9206 28.2134C92.9206 27.5764 93.3187 27.4172 94.115 27.4172C94.9112 27.4172 95.2828 27.2314 95.6809 26.8598C96.079 26.4882 96.2648 25.9839 96.2648 25.2939V4.11393C96.2648 3.47694 96.1056 2.94612 95.7605 2.57454C95.442 2.20296 95.0174 1.99063 94.5131 1.99063C94.0088 1.99063 93.3718 1.91101 93.1595 1.7783C92.9206 1.61905 92.8145 1.40671 92.8145 1.08822C92.8145 0.530849 93.1595 0.265443 93.823 0.265443C94.4866 0.265443 94.2477 0.291974 94.7254 0.371598C95.2032 0.451222 95.6013 0.47777 95.9198 0.47777C96.2383 0.47777 96.4506 0.451222 96.7691 0.371598C97.0876 0.291974 97.3796 0.265443 97.5919 0.265443C97.9635 0.265443 98.4412 0.583938 98.9986 1.19439C99.5559 1.80484 101.493 4.32625 104.785 8.7321L113.596 20.4634C113.756 20.6757 113.888 20.7553 114.021 20.7553C114.313 20.7553 114.472 20.4103 114.472 19.6671V3.7689L114.339 3.84852Z" fill="white"/>
<path d="M132.733 11.3331C132.494 11.6782 132.388 11.917 132.388 12.0497C132.388 12.1824 132.441 12.2886 132.547 12.4213L142.792 26.1697C143.11 26.5147 143.455 26.7536 143.854 26.9129C144.252 27.0721 144.57 27.1517 144.809 27.1517C145.048 27.1517 145.313 27.2314 145.526 27.3641C145.738 27.5233 145.844 27.7091 145.844 27.9214C145.844 28.293 145.685 28.5584 145.366 28.7707C145.048 28.9831 144.623 29.0627 144.145 29.0627C143.11 29.0627 141.969 28.6646 140.748 27.8684C139.527 27.0721 138.413 26.0105 137.404 24.6834L130.291 15.3143C130.132 15.1285 130.026 15.0489 129.972 15.0489C129.919 15.0489 129.813 15.1285 129.68 15.2878L127.079 18.5789C126.973 18.7382 126.92 18.8974 126.92 19.1097V25.6654C126.92 26.037 127.026 26.329 127.212 26.5944C127.398 26.8598 127.823 27.0456 128.433 27.1783C129.044 27.2844 129.442 27.4171 129.548 27.5764C129.68 27.7091 129.734 27.8949 129.734 28.1072C129.734 28.3195 129.574 28.5584 129.229 28.7442C128.911 28.93 128.407 29.0362 127.77 29.0362C127.133 29.0362 127.026 28.9831 126.469 28.8504C125.912 28.7177 125.434 28.6646 125.009 28.6646C124.585 28.6646 123.788 28.7442 123.072 28.9035C122.355 29.0627 121.851 29.1423 121.506 29.1423C121.161 29.1423 120.895 29.0362 120.603 28.8504C120.311 28.6646 120.179 28.3992 120.179 28.0807C120.179 27.7622 120.232 27.6826 120.391 27.5233C120.524 27.3641 120.948 27.2579 121.692 27.2048C122.435 27.1517 122.886 26.9129 123.125 26.4882C123.337 26.0635 123.47 25.5858 123.47 25.055V4.22006C123.47 3.71577 123.364 3.23804 123.151 2.83992C122.939 2.4418 122.461 2.20293 121.771 2.1233C121.055 2.04368 120.63 1.93752 120.497 1.77827C120.365 1.61902 120.285 1.43322 120.285 1.22089C120.285 1.00856 120.418 0.769697 120.71 0.530826C121.001 0.291954 121.4 0.159241 121.904 0.159241C122.408 0.159241 123.019 0.238862 123.762 0.371568C124.505 0.530816 125.115 0.583912 125.62 0.583912C126.124 0.583912 126.336 0.504281 126.841 0.345034C127.345 0.185786 127.902 0.106155 128.539 0.106155C129.176 0.106155 129.468 0.21233 129.813 0.398119C130.132 0.583908 130.291 0.822774 130.291 1.08819C130.291 1.3536 130.211 1.45976 130.052 1.61901C129.893 1.77826 129.521 1.91097 128.937 2.07022C128.353 2.22947 127.955 2.36217 127.716 2.46834C127.478 2.5745 127.292 2.78684 127.159 3.10533C127.026 3.42383 126.947 3.90156 126.947 4.53855V15.3143L127 15.7124L127.292 15.4205L136.13 3.76887C136.581 3.2115 136.794 2.81338 136.794 2.57451C136.794 2.33564 136.714 2.28255 136.581 2.17639C136.449 2.07022 136.077 1.99059 135.52 1.93751C134.936 1.88443 134.564 1.77826 134.405 1.61901C134.219 1.45976 134.139 1.27397 134.139 1.0351C134.139 0.796229 134.272 0.477746 134.564 0.318499C134.856 0.13271 135.201 0.0530858 135.599 0.0530858C135.997 0.0530858 136.422 0.106162 136.979 0.212327C137.537 0.318492 137.908 0.371568 138.094 0.371568C138.28 0.371568 138.758 0.318499 139.395 0.185792C140.032 0.0530858 140.509 0 140.854 0C141.199 0 141.518 0.106159 141.73 0.291948C141.969 0.477737 142.075 0.743146 142.075 1.0351C142.075 1.32705 142.022 1.35361 141.916 1.45977C141.81 1.56594 141.359 1.75172 140.616 1.96405C139.846 2.20292 139.262 2.5745 138.864 3.13187L132.786 11.2535L132.733 11.3331Z" fill="white"/>
<path d="M75.112 53.6666L75.0059 49.7385H76.0675L76.731 51.5964C76.7576 51.7025 76.8372 51.7822 76.9168 51.8883C76.9965 51.9679 77.1026 52.0476 77.1557 52.1007C77.4211 52.2599 77.7131 52.4191 78.0581 52.5784C78.4031 52.7376 78.7747 52.8438 79.1463 52.95C79.5179 53.0296 79.8364 53.0827 80.1283 53.0827C80.898 53.0827 81.535 52.8969 82.0128 52.4988C82.4905 52.1007 82.7294 51.6229 82.7294 51.0125C82.7294 50.402 82.5701 50.0835 82.2782 49.8181C81.9597 49.5527 81.535 49.2873 80.9776 49.0749C80.4468 48.8626 79.9425 48.7034 79.4117 48.5707C78.9074 48.438 78.4032 48.2787 77.8989 48.0929C77.1026 47.7744 76.4922 47.3232 76.041 46.7128C75.5898 46.1023 75.3509 45.3592 75.3509 44.5099C75.3509 43.6605 75.5898 42.997 76.0675 42.3865C76.5453 41.7761 77.1823 41.2983 77.952 40.9533C78.7216 40.6083 79.571 40.4225 80.4999 40.4225C81.4289 40.4225 81.5616 40.449 82.0924 40.5287C82.6232 40.5817 83.154 40.6614 83.6318 40.7675C84.1095 40.8471 84.5607 40.9533 84.9323 41.0595V44.8018H83.8972L83.2867 43.0501C83.2602 42.9439 83.2071 42.8643 83.101 42.7847C83.0213 42.705 82.9417 42.6254 82.8621 42.5723C82.7028 42.4662 82.4905 42.36 82.1986 42.2538C81.9066 42.1477 81.6146 42.0681 81.2961 41.9884C80.9777 41.9088 80.6857 41.8823 80.4468 41.8823C79.7302 41.8823 79.1728 42.068 78.7747 42.4131C78.3766 42.7847 78.1908 43.1828 78.1908 43.6074C78.1908 44.0321 78.3235 44.4568 78.5889 44.8018C78.8543 45.1203 79.3321 45.4123 80.0487 45.6511C80.553 45.8104 81.0307 45.9696 81.5085 46.1023C81.9862 46.235 82.4905 46.4208 83.0744 46.6332C83.5256 46.8189 83.9503 47.0578 84.3484 47.3498C84.7465 47.6683 85.065 48.0398 85.3304 48.491C85.5693 48.9422 85.702 49.4996 85.702 50.1631C85.702 50.8267 85.4897 51.6229 85.0915 52.2864C84.6934 52.95 84.0565 53.5073 83.1806 53.9055C82.3313 54.3301 81.2165 54.5159 79.8895 54.5159C78.5624 54.5159 78.8809 54.4628 78.3235 54.3832C77.7662 54.3036 77.2353 54.1974 76.678 54.0647C76.1206 53.932 75.6163 53.7993 75.1386 53.6666H75.112Z" fill="#3974EA"/>
<path d="M89.7889 54.1974V53.4543L91.3017 52.95C91.4344 52.9234 91.5141 52.8704 91.5937 52.7907C91.6733 52.7111 91.6999 52.6049 91.6999 52.4457V48.9422L87.931 42.3069C87.8779 42.2008 87.7983 42.0946 87.7187 42.015C87.639 41.9088 87.5329 41.8292 87.4267 41.8026L86.3916 41.4045V40.6614H92.4961V41.4045L90.9036 41.9088L93.372 46.1554L93.9293 47.3232H94.0355L97.0877 42.015L95.5483 41.4045V40.6614H100.113V41.4045L99.1049 41.8557C98.9987 41.9088 98.8925 41.9884 98.8129 42.0681C98.7333 42.1477 98.6537 42.2804 98.5741 42.36L94.7256 48.8626V52.4192C94.7256 52.5784 94.7521 52.6846 94.8317 52.7642C94.9114 52.8438 94.991 52.8969 95.1237 52.9234L96.6365 53.4277V54.1709H89.7889V54.1974Z" fill="#3974EA"/>
<path d="M100.645 54.1974V53.4543L102.025 52.8969C102.131 52.8438 102.237 52.7907 102.317 52.7111C102.397 52.6315 102.423 52.5253 102.423 52.3926V42.3866C102.423 42.2539 102.397 42.1477 102.317 42.0681C102.237 41.9884 102.158 41.9353 102.052 41.9088L100.592 41.4045V40.6614H105.29L111.049 48.9422L111.845 50.1897H111.951V42.4396C111.951 42.3069 111.925 42.2008 111.845 42.1211C111.766 42.0415 111.686 41.9884 111.553 41.9619L110.173 41.4045V40.6614H115.349V41.4045L113.969 41.9619C113.862 41.9884 113.756 42.0681 113.677 42.1211C113.597 42.2008 113.544 42.3069 113.544 42.4396V52.0476L113.252 54.2771H111.368L104.998 45.1468L104.175 43.8198H104.069V52.3661C104.069 52.5253 104.095 52.6315 104.175 52.6846C104.254 52.7642 104.334 52.8173 104.44 52.8704L105.82 53.4277V54.1709H100.645V54.1974Z" fill="#3974EA"/>
<path d="M116.517 54.1971V53.454L117.897 52.9497C118.003 52.9231 118.109 52.8435 118.189 52.7639C118.268 52.6843 118.295 52.5781 118.295 52.4454V42.3597C118.295 42.227 118.268 42.1208 118.189 42.0412C118.109 41.9616 118.029 41.9085 117.897 41.882L116.517 41.3777V40.6345H127.982V44.3503H126.921L126.284 42.4128C126.257 42.3066 126.204 42.227 126.151 42.1474C126.098 42.0678 126.018 42.0412 125.886 42.0412H121.321V46.4471H123.975C124.107 46.4471 124.187 46.4205 124.24 46.3675C124.293 46.3144 124.346 46.2347 124.373 46.102L124.93 44.5892H125.833V49.6851H124.93L124.373 48.1723C124.346 48.0661 124.293 47.9865 124.24 47.9068C124.187 47.8272 124.107 47.8007 123.975 47.8007H121.321V52.7374H126.655C126.762 52.7374 126.841 52.7108 126.921 52.6312C127 52.5516 127.027 52.4719 127.053 52.3658L127.664 50.1894H128.726V54.144H116.517V54.1971Z" fill="#3974EA"/>
<path d="M130.212 54.1971V53.454L131.592 52.9497C131.698 52.9231 131.805 52.8435 131.858 52.7639C131.937 52.6843 131.964 52.5781 131.964 52.4454V42.3597C131.964 42.227 131.937 42.1208 131.858 42.0412C131.778 41.9616 131.698 41.9085 131.592 41.882L130.212 41.3777V40.6345H136.715C137.776 40.6345 138.626 40.7407 139.289 40.9265C139.953 41.1388 140.484 41.4042 140.855 41.7227C141.227 42.0412 141.492 42.4128 141.625 42.8109C141.758 43.209 141.837 43.6071 141.837 44.0318C141.837 44.7484 141.678 45.3323 141.386 45.8366C141.094 46.3409 140.696 46.7125 140.245 47.031C139.794 47.3229 139.342 47.5618 138.891 47.6945L136.927 48.6765L134.83 48.1192L134.936 46.9779C134.963 46.9779 135.069 47.0044 135.255 47.031C135.441 47.031 135.627 47.0575 135.839 47.0841C136.051 47.0841 136.21 47.0841 136.317 47.0841C136.847 47.0841 137.272 46.9514 137.617 46.7125C137.962 46.4736 138.201 46.1286 138.36 45.757C138.52 45.3589 138.599 44.9608 138.599 44.5096C138.599 43.6337 138.387 42.9967 137.962 42.5986C137.537 42.2005 136.927 41.9881 136.131 41.9881H134.963V52.3923C134.963 52.5516 134.99 52.6577 135.069 52.7374C135.149 52.817 135.228 52.8701 135.361 52.8966L136.821 53.4009V54.144H130.186L130.212 54.1971ZM144.491 54.1971H141.147C140.722 54.1971 140.404 54.144 140.192 54.0644C139.979 53.9848 139.793 53.8521 139.661 53.6398C139.528 53.4274 139.342 53.2151 139.13 52.8966L136.21 48.358L138.997 47.5087L142.288 52.3392C142.368 52.4719 142.501 52.6046 142.66 52.7639C142.819 52.8966 142.978 53.0028 143.111 53.0558L144.491 53.4805V54.2237V54.1971Z" fill="#3974EA"/>
<path d="M153.78 52.472V49.6055C153.78 49.4728 153.753 49.3666 153.674 49.287C153.594 49.2074 153.515 49.1543 153.382 49.1012L151.683 48.5969V47.8803H158.372V48.5969L157.151 49.1012C157.045 49.1543 156.938 49.2074 156.885 49.287C156.806 49.3666 156.779 49.4728 156.779 49.6055V51.0918C156.779 51.6492 156.779 52.1535 156.779 52.5516C156.779 52.9497 156.779 53.2682 156.832 53.5071C156.116 53.7725 155.266 53.9848 154.284 54.1972C153.302 54.383 152.294 54.4891 151.312 54.4891C150.33 54.4891 148.923 54.2237 147.861 53.6663C146.826 53.109 145.977 52.3127 145.366 51.2776C144.756 50.2425 144.438 48.942 144.438 47.4557C144.438 45.9694 144.756 44.775 145.366 43.7134C145.977 42.6517 146.826 41.8289 147.914 41.245C149.003 40.6611 150.197 40.3691 151.577 40.3691C152.957 40.3691 152.878 40.3957 153.462 40.4488C154.045 40.5018 154.603 40.5815 155.134 40.6876C155.664 40.7938 156.195 40.9265 156.726 41.0592V44.6688H155.664L155.081 42.8906C155.081 42.8109 155.001 42.7313 154.921 42.6517C154.842 42.5721 154.762 42.5455 154.656 42.4924C154.231 42.2801 153.727 42.1209 153.117 41.9882C152.506 41.8555 151.975 41.8024 151.471 41.8024C150.967 41.8024 150.17 41.9882 149.587 42.3863C149.003 42.7844 148.551 43.3683 148.206 44.138C147.861 44.9342 147.676 45.9163 147.676 47.0841C147.676 48.2519 147.835 49.2605 148.127 50.1629C148.419 51.0653 148.87 51.7554 149.454 52.2596C150.038 52.7639 150.754 53.0293 151.577 53.0293C152.4 53.0293 152.161 53.0028 152.426 52.9497C152.692 52.8966 152.931 52.817 153.17 52.7374C153.408 52.6578 153.621 52.5516 153.833 52.4454L153.78 52.472Z" fill="#3974EA"/>
<path d="M159.407 54.1971V53.454L160.84 52.9497C160.973 52.9231 161.053 52.8435 161.132 52.7639C161.212 52.6843 161.239 52.5781 161.239 52.4454V42.3597C161.239 42.227 161.185 42.1208 161.106 42.0412C161.026 41.9616 160.947 41.9085 160.84 41.882L159.407 41.3777V40.6345H166.069V41.3777L164.636 41.882C164.53 41.9085 164.424 41.9616 164.344 42.0412C164.264 42.1208 164.211 42.227 164.211 42.3597V52.4454C164.211 52.6046 164.238 52.7108 164.344 52.7904C164.424 52.8701 164.53 52.9231 164.636 52.9497L166.069 53.454V54.1971H159.407Z" fill="#3974EA"/>
<path d="M167.476 54.1971V53.454L168.856 52.9497C168.962 52.9231 169.068 52.8435 169.148 52.7639C169.227 52.6843 169.254 52.5781 169.254 52.4454V42.3597C169.254 42.227 169.227 42.1208 169.148 42.0412C169.068 41.9616 168.988 41.9085 168.856 41.882L167.476 41.3777V40.6345H178.941V44.3503H177.88L177.243 42.4128C177.216 42.3066 177.163 42.227 177.11 42.1474C177.057 42.0678 176.977 42.0412 176.845 42.0412H172.28V46.4471H174.934C175.066 46.4471 175.146 46.4205 175.199 46.3675C175.252 46.3144 175.305 46.2347 175.332 46.102L175.889 44.5892H176.792V49.6851H175.889L175.332 48.1723C175.305 48.0661 175.252 47.9865 175.199 47.9068C175.146 47.8272 175.066 47.8007 174.934 47.8007H172.28V52.7374H177.614C177.721 52.7374 177.8 52.7108 177.88 52.6312C177.959 52.5516 177.986 52.4719 178.012 52.3658L178.623 50.1894H179.685V54.144H167.476V54.1971Z" fill="#3974EA"/>
<path d="M181.41 53.6664L181.304 49.7382H182.365L183.029 51.5961C183.055 51.7023 183.135 51.7819 183.215 51.8881C183.294 51.9677 183.4 52.0473 183.454 52.1004C183.719 52.2597 184.011 52.4189 184.356 52.5781C184.701 52.7374 185.073 52.8436 185.444 52.9497C185.816 53.0294 186.134 53.0824 186.426 53.0824C187.196 53.0824 187.833 52.8966 188.311 52.4985C188.788 52.1004 189.027 51.6227 189.027 51.0122C189.027 50.4018 188.868 50.0833 188.576 49.8179C188.258 49.5525 187.833 49.287 187.276 49.0747C186.745 48.8624 186.24 48.7031 185.71 48.5704C185.205 48.4377 184.701 48.2785 184.197 48.0927C183.4 47.7742 182.79 47.323 182.339 46.7125C181.888 46.1021 181.649 45.3589 181.649 44.5096C181.649 43.6603 181.888 42.9968 182.365 42.3863C182.843 41.7759 183.48 41.2981 184.25 40.9531C185.019 40.608 185.869 40.4222 186.798 40.4222C187.727 40.4222 187.859 40.4488 188.39 40.5284C188.921 40.5815 189.452 40.6611 189.93 40.7673C190.407 40.8469 190.859 40.9531 191.23 41.0592V44.8016H190.195L189.585 43.0498C189.558 42.9437 189.505 42.864 189.399 42.7844C189.319 42.7048 189.24 42.6252 189.16 42.5721C189.001 42.4659 188.788 42.3598 188.496 42.2536C188.204 42.1474 187.913 42.0678 187.594 41.9882C187.276 41.9086 186.984 41.882 186.745 41.882C186.028 41.882 185.471 42.0678 185.073 42.4128C184.674 42.7844 184.489 43.1825 184.489 43.6072C184.489 44.0319 184.621 44.4565 184.887 44.8016C185.152 45.12 185.63 45.412 186.347 45.6509C186.851 45.8101 187.329 45.9694 187.806 46.1021C188.284 46.2348 188.788 46.4206 189.372 46.6329C189.823 46.8187 190.248 47.0576 190.646 47.3495C191.044 47.668 191.363 48.0396 191.628 48.4908C191.867 48.942 192 49.4994 192 50.1629C192 50.8264 191.788 51.6227 191.389 52.2862C190.991 52.9497 190.354 53.5071 189.478 53.9052C188.629 54.3299 187.514 54.5157 186.187 54.5157C184.86 54.5157 185.179 54.4626 184.621 54.383C184.064 54.3033 183.533 54.1972 182.976 54.0645C182.418 53.9318 181.914 53.7991 181.436 53.6664H181.41Z" fill="#3974EA"/>
<path d="M176.288 35.1938V34.9019L176.819 34.7161C176.872 34.7161 176.899 34.6896 176.925 34.6365C176.952 34.5834 176.978 34.5569 176.978 34.5038V30.6287C176.978 30.5757 176.978 30.5226 176.925 30.496C176.872 30.4695 176.872 30.443 176.819 30.443L176.288 30.2572V29.9652H178.836V30.2572L178.305 30.443C178.252 30.443 178.226 30.4695 178.199 30.496C178.173 30.5226 178.146 30.5757 178.146 30.6287V34.6365H179.898C179.951 34.6365 179.977 34.6365 180.004 34.5834C180.004 34.5569 180.057 34.5038 180.057 34.4772L180.322 33.4421H180.747V35.1938H176.315H176.288Z" fill="white"/>
<path d="M181.728 35.1939V34.9019L182.312 34.7162C182.365 34.7162 182.392 34.6896 182.418 34.6365C182.445 34.61 182.471 34.5569 182.471 34.5038V30.4961H181.383C181.33 30.4961 181.304 30.4961 181.277 30.5226C181.277 30.5226 181.224 30.5757 181.224 30.6288L180.985 31.425H180.587V29.9387H185.524V31.425H185.125L184.887 30.6288C184.887 30.5757 184.86 30.5492 184.834 30.5226C184.834 30.5226 184.78 30.4961 184.727 30.4961H183.639V34.5038C183.639 34.5569 183.639 34.61 183.692 34.6365C183.745 34.6631 183.772 34.6896 183.798 34.6896L184.382 34.8754V35.1674H181.728V35.1939Z" fill="white"/>
<path d="M185.948 35.1938V34.9019L186.479 34.7161C186.532 34.7161 186.559 34.6896 186.585 34.6365C186.612 34.6099 186.638 34.5569 186.638 34.5038V30.6287C186.638 30.5757 186.638 30.5226 186.585 30.496C186.559 30.4695 186.532 30.443 186.479 30.443L185.948 30.2572V29.9652H188.496C188.709 29.9652 188.947 29.9652 189.213 30.0448C189.478 30.1245 189.717 30.1775 189.956 30.2837C190.195 30.3899 190.407 30.5491 190.62 30.7614C190.805 30.9738 190.965 31.2127 191.097 31.5046C191.203 31.7966 191.283 32.1681 191.283 32.5928C191.283 33.0175 191.15 33.681 190.911 34.0526C190.673 34.4242 190.328 34.7161 189.903 34.9019C189.478 35.0877 189.027 35.1938 188.496 35.1938H185.975H185.948ZM187.806 30.5226V34.663H188.523C189.027 34.663 189.399 34.5038 189.637 34.1587C189.876 33.8137 189.983 33.336 189.983 32.7255C189.983 32.1151 189.903 31.8762 189.77 31.5577C189.637 31.2392 189.452 30.9738 189.186 30.8145C188.947 30.6287 188.655 30.5491 188.31 30.5491H187.78L187.806 30.5226Z" fill="white"/>
</svg>
